<?xml version="1.0" encoding="UTF-8"?>
<svg version="1.1" xmlns="http://www.w3.org/2000/svg" width="1200" height="1200">
<path d="M0 0 C396 0 792 0 1200 0 C1200 396 1200 792 1200 1200 C804 1200 408 1200 0 1200 C0 804 0 408 0 0 Z " fill="#EC6341" transform="translate(0,0)"/>
<path d="M0 0 C44.22 0 88.44 0 134 0 C134 24.21035644 134 24.21035644 133.1875 31.90625 C133.09839355 32.82045212 133.00928711 33.73465424 132.91748047 34.67655945 C132.62489118 37.61923849 132.31431275 40.55956717 132 43.5 C131.89284668 44.52960846 131.78569336 45.55921692 131.67529297 46.62002563 C129.86788866 63.86978577 127.56789318 81.03554173 125 98.1875 C124.75830078 99.82066162 124.75830078 99.82066162 124.51171875 101.48681641 C122.56639618 114.52482691 120.1826064 127.35831872 117.11791992 140.1809082 C116.0292044 144.76238128 115.14624807 149.36633145 114.3125 154 C109.87834227 177.24409335 103.26167713 200.48993377 96 223 C95.60119629 224.24797363 95.20239258 225.49594727 94.79150391 226.78173828 C78.25639531 278.38263499 57.30318403 328.6750256 29 375 C28.47809082 375.85658203 27.95618164 376.71316406 27.41845703 377.59570312 C20.39875403 389.05698794 12.90621038 400.13323897 5 411 C4.24203125 412.04414062 3.4840625 413.08828125 2.703125 414.1640625 C-6.10899075 426.09579587 -15.46826221 437.57181084 -25.59375 448.41015625 C-27.57871261 450.54656893 -29.48931489 452.71442515 -31.375 454.9375 C-38.88670807 463.58953966 -47.23974082 471.62718519 -56 479 C-56.91652344 479.80566406 -57.83304688 480.61132812 -58.77734375 481.44140625 C-75.59569685 496.1401569 -93.51009546 507.89167532 -114.625 515.375 C-115.53008301 515.69694336 -116.43516602 516.01888672 -117.36767578 516.35058594 C-130.58501745 520.81223547 -143.20939358 522.50234658 -157.06079102 522.39111328 C-159.43239016 522.37503464 -161.80228017 522.39106048 -164.17382812 522.41015625 C-200.63595463 522.46163042 -233.76072702 506.71685782 -260 482 C-260.65226562 481.4121875 -261.30453125 480.824375 -261.9765625 480.21875 C-271.17330451 471.58970811 -278.38116966 460.70161234 -285.25 450.1875 C-285.632771 449.60726074 -286.01554199 449.02702148 -286.40991211 448.42919922 C-288.14536421 445.70722404 -289 444.29705181 -289 441 C-287.79730469 440.63390625 -286.59460938 440.2678125 -285.35546875 439.890625 C-262.81565834 432.81843092 -241.3070203 423.06032208 -221 411 C-219.80238037 410.2889209 -219.80238037 410.2889209 -218.58056641 409.56347656 C-206.76994552 402.47568363 -195.75916704 394.58901041 -185 386 C-183.45699219 384.77796875 -183.45699219 384.77796875 -181.8828125 383.53125 C-176.24462818 378.99514704 -170.86089578 374.22239555 -165.5390625 369.3203125 C-163.45505097 367.41584658 -161.34128914 365.57384698 -159.1875 363.75 C-150.90657079 356.54696034 -142.95176971 348.59436562 -135.87109375 340.20703125 C-134.34574967 338.40782581 -132.7954237 336.64402702 -131.22265625 334.88671875 C-122.17797681 324.7198811 -114.01129018 313.99264562 -106 303 C-105.46487793 302.27022949 -104.92975586 301.54045898 -104.37841797 300.78857422 C-91.89350705 283.70750441 -80.98449973 265.64075157 -71 247 C-70.53239258 246.13181641 -70.06478516 245.26363281 -69.58300781 244.36914062 C-52.01280394 211.63783136 -38.03461435 177.46445134 -27 142 C-26.70432129 141.05108887 -26.40864258 140.10217773 -26.10400391 139.12451172 C-21.00850735 122.59535331 -16.88737837 105.84935564 -13 89 C-12.67722843 87.64832146 -12.35430629 86.29667887 -12.03125 84.94506836 C-9.34450368 73.51439009 -7.47862699 62.01812655 -5.81738281 50.39770508 C-5.37778927 47.33195257 -4.92401319 44.26853825 -4.46875 41.20507812 C-4.17362361 39.17460334 -3.87932674 37.14400777 -3.5859375 35.11328125 C-3.45569183 34.23851639 -3.32544617 33.36375153 -3.19125366 32.46247864 C-1.66788401 21.66012305 -0.94920501 10.9158576 0 0 Z " fill="#FDF1E9" transform="translate(643,364)"/>
<path d="M0 0 C46.86 0 93.72 0 142 0 C142 33.94653614 142 33.94653614 141.25 45.875 C141.20709839 46.58302765 141.16419678 47.2910553 141.11999512 48.02053833 C138.21860511 95.42222446 131.53285107 142.50018285 122 189 C121.70713211 190.44139367 121.41432364 191.88279942 121.12158203 193.32421875 C114.79982766 224.28996061 106.76496383 254.94241607 97 285 C96.5546426 286.38209456 96.10950429 287.76425973 95.66455078 289.14648438 C79.95789272 337.83516894 60.77661491 385.83727642 33 429 C32.53223145 429.7326709 32.06446289 430.4653418 31.58251953 431.22021484 C4.42429447 473.58944137 -31.86020811 505.91308428 -81.6875 517.9375 C-115.74429392 525.34508626 -149.78418921 518.20207411 -179.22998047 500.14941406 C-183.41681262 497.43057189 -187.26091685 494.2986623 -191 491 C-187.11716032 486.22965411 -182.93071207 481.88238977 -178.5625 477.5625 C-174.5361426 473.57095422 -170.58252093 469.58196435 -166.9140625 465.25390625 C-165.34602693 463.40746436 -163.75600059 461.58909956 -162.1484375 459.77734375 C-153.96700497 450.51960386 -146.35492447 440.92453197 -139 431 C-138.45311523 430.26346191 -137.90623047 429.52692383 -137.34277344 428.76806641 C-90.64470627 365.63107307 -60.16630512 293.54083508 -37 219 C-36.69319305 218.01380676 -36.69319305 218.01380676 -36.38018799 217.00769043 C-30.18987056 197.03290339 -25.51911752 176.72183654 -20.96923828 156.32519531 C-20.16425572 152.71997929 -19.33563028 149.12078445 -18.49609375 145.5234375 C-14.96436021 130.19744978 -12.59082404 114.6983999 -10.31573486 99.14642334 C-10.00097607 97.0066355 -9.68072635 94.8677373 -9.35888672 92.72900391 C-6.67418229 74.84217017 -4.46767165 56.94392388 -2.75 38.9375 C-2.66700653 38.0749762 -2.58401306 37.21245239 -2.49850464 36.3237915 C-2.25893724 33.80880035 -2.0263916 31.29327058 -1.796875 28.77734375 C-1.73043289 28.07104324 -1.66399078 27.36474274 -1.59553528 26.63703918 C-0.8110678 17.7653747 -0.46888533 8.90882128 0 0 Z " fill="#FDF1E9" transform="translate(818,364)"/>
<path d="M0 0 C46.86 0 93.72 0 142 0 C142.33 6.93 142.66 13.86 143 21 C143.27926379 24.57410712 143.57177403 28.12454934 143.9375 31.6875 C144.6099701 38.61400468 145.20141335 45.53902316 145.70092773 52.48022461 C147.24693423 73.84829988 149.81889474 94.93027459 153.49707031 116.03320312 C153.99340221 118.96107945 154.45301941 121.892102 154.8984375 124.828125 C159.39638982 154.4128709 164.98456041 184.21825182 173.7890625 212.84765625 C174.76665867 216.0884158 175.58993572 219.35182771 176.390625 222.640625 C178.06037969 229.40064326 180.05391473 236.04079272 182.125 242.6875 C182.32008148 243.31383331 182.51516296 243.94016663 182.71615601 244.58547974 C193.15044883 277.98564003 206.42189127 310.22483312 221 342 C216.35644806 347.63017038 211.4594638 352.17180179 205.70019531 356.67089844 C204.51614656 357.59651036 203.33609548 358.52724937 202.15917969 359.46191406 C177.53296461 379.00241454 150.44471926 394.83742986 121 406 C120.12633789 406.3314502 119.25267578 406.66290039 118.35253906 407.00439453 C115.6373169 408.02175946 112.91519295 409.01659687 110.1875 410 C109.35677979 410.30349365 108.52605957 410.6069873 107.67016602 410.91967773 C103.29618676 412.44744845 99.70402083 413.36359581 95 413 C70.18190528 366.29649538 47.76389507 316.52831715 35 265 C34.44715652 262.99491096 33.87805651 260.99484848 33.30786133 258.99462891 C27.21079962 237.54813637 22.10522452 215.91230229 18 194 C17.78601563 192.86046875 17.57203125 191.7209375 17.3515625 190.546875 C16.26133032 184.72375255 15.18417002 178.89845197 14.12109375 173.0703125 C13.49771869 169.662252 12.86213222 166.25992675 12.16015625 162.8671875 C9.21709213 148.39049372 7.67975466 133.6666423 6 119 C5.91171936 118.23012756 5.82343872 117.46025513 5.73248291 116.66705322 C1.2803682 77.62395608 0 39.56720578 0 0 Z " fill="#FDF1E9" transform="translate(241,364)"/>
<path d="M0 0 C44.55 0 89.1 0 135 0 C136.98 24.75 136.98 24.75 139 50 C140.09756022 59.34818534 141.22115329 68.61706291 142.67382812 77.90539551 C143.03624121 80.2327331 143.39134068 82.56113124 143.74609375 84.88964844 C146.87385473 105.34033839 150.23361192 125.68578802 154.9543457 145.8371582 C155.23753662 147.08198975 155.52072754 148.32682129 155.8125 149.609375 C156.06644531 150.68155273 156.32039062 151.75373047 156.58203125 152.85839844 C157.33405606 158.510884 156.09234507 163.3464618 153.98828125 168.5703125 C153.56772461 169.61638672 153.14716797 170.66246094 152.71386719 171.74023438 C152.25141602 172.85720703 151.78896484 173.97417969 151.3125 175.125 C150.58208496 176.89713867 150.58208496 176.89713867 149.83691406 178.70507812 C137.6155567 208.05793809 122.88751687 236.69364808 105 263 C104.10016041 264.34107874 103.20042207 265.68222541 102.30078125 267.0234375 C96.29630503 275.91482554 89.97165217 284.54232094 83.46533203 293.07177734 C81.99623562 295.00495352 80.54186024 296.94850441 79.08984375 298.89453125 C78.18522735 300.09660372 77.28029512 301.2984386 76.375 302.5 C75.96113037 303.05840576 75.54726074 303.61681152 75.12084961 304.19213867 C74.12800417 305.49886621 73.06978146 306.75547337 72 308 C71.34 308 70.68 308 70 308 C54.2835098 270.02883917 39.89439787 231.64324408 29.5625 191.8125 C29.18889859 190.38148522 28.81519422 188.95049731 28.44140625 187.51953125 C28.12236328 186.28493164 28.12236328 186.28493164 27.796875 185.02539062 C27.18197855 182.69089406 26.54979668 180.36371509 25.90625 178.03710938 C22.56667544 165.8382892 19.94910745 153.54677155 17.51513672 141.13818359 C16.8741855 137.87084797 16.22495202 134.60524384 15.57421875 131.33984375 C10.56561205 106.11921024 6.50880575 80.92126455 3.69238281 55.35546875 C3.48232236 53.465571 3.26722631 51.57622555 3.046875 49.6875 C1.10732955 33.06282474 0.58006467 16.82187554 0 0 Z " fill="#FDF1E9" transform="translate(422,364)"/>
</svg>
